<?xml version="1.0" encoding="utf-8"?>
<!-- Generator: Adobe Illustrator 15.1.0, SVG Export Plug-In . SVG Version: 6.00 Build 0)  -->
<!DOCTYPE svg PUBLIC "-//W3C//DTD SVG 1.1//EN" "http://www.w3.org/Graphics/SVG/1.1/DTD/svg11.dtd">
<svg version="1.1" id="Layer_1" xmlns="http://www.w3.org/2000/svg" xmlns:xlink="http://www.w3.org/1999/xlink" x="0px" y="0px"
	 width="526.747px" height="327.72px" viewBox="0 0 526.747 327.72" enable-background="new 0 0 526.747 327.72"
	 xml:space="preserve">
<g>
	<polygon fill="#FFFFFF" points="133.282,304.772 130.536,304.772 134.444,318.472 141.177,300.362 143.925,300.362 
		150.735,318.433 150.735,318.51 154.604,304.772 151.741,304.772 151.741,300.362 162.886,300.362 162.886,304.772 
		159.712,304.772 152.786,327.565 149.573,327.565 142.493,309.532 135.526,327.565 132.354,327.565 125.35,304.772 
		122.137,304.772 122.137,300.362 133.282,300.362 	"/>
	<path fill="#FFFFFF" d="M163.379,323.152h2.94l10.217-22.791h2.244l10.214,22.791h2.942v4.412h-10.1v-4.412h2.09l-1.238-2.823
		h-10.254l-1.199,2.823h2.32v4.412h-10.176V323.152z M174.099,316.499h6.965l-3.483-8.127L174.099,316.499z"/>
	<polygon fill="#FFFFFF" points="199.556,323.153 202.495,323.153 202.495,304.772 197.502,304.772 197.502,307.792 
		193.401,307.792 193.401,300.362 216.272,300.362 216.272,307.792 212.168,307.792 212.168,304.772 207.333,304.772 
		207.333,323.153 210.312,323.153 210.312,327.565 199.556,327.565 	"/>
	<polygon fill="#FFFFFF" points="239.175,307.792 239.175,304.771 230.392,304.771 230.392,312.396 236.97,312.396 236.97,316.652 
		230.392,316.652 230.392,323.152 239.175,323.152 239.175,320.136 243.276,320.136 243.276,327.564 222.613,327.564 
		222.613,323.152 225.593,323.152 225.593,304.771 222.613,304.771 222.613,300.361 243.276,300.361 243.276,307.792 	"/>
	<path fill="#FFFFFF" d="M251.784,300.362h11.648c7.237,0,10.874,3.984,10.874,9.674c0,3.754-1.55,6.732-5.146,8.357
		c2.129,1.819,2.67,4.838,5.959,4.838h1.084v4.256c0,0-1.006,0.232-2.594,0.232c-6.772,0-6.385-6.23-9.674-8.089
		c-0.465,0.039-0.928,0.039-1.431,0.039h-2.979v3.483h3.715v4.412h-11.455v-4.412h2.941v-18.381h-2.941V300.362z M259.524,304.772
		v10.643h3.559c4.49,0,6.037-2.4,6.037-5.379c0-2.98-1.51-5.264-6.037-5.264H259.524z"/>
	<path fill="#FFFFFF" d="M283.856,300.362h11.688c7.004,0,10.139,2.901,10.139,7.197c0,2.941-1.703,5.03-4.76,6.112
		c3.752,1.084,5.494,3.29,5.494,6.192c0,4.838-4.682,7.701-10.873,7.701h-11.688v-4.412h2.98v-18.381h-2.98V300.362z
		 M291.636,304.772v7.393h3.443c3.908,0.037,5.611-1.975,5.611-4.026c0-1.856-1.395-3.366-4.914-3.366H291.636z M291.636,315.608
		v7.545h4.141c4.063,0,5.455-1.779,5.455-3.791c0-1.858-1.703-3.793-6.617-3.754H291.636z"/>
	<path fill="#FFFFFF" d="M330.21,300.362h10.758v4.41h-2.981v11.532c0,8.125-4.603,11.765-11.413,11.765s-11.262-3.64-11.262-11.765
		v-11.532h-2.979v-4.41h10.758v4.41h-2.981v11.532c0,5.185,2.362,7.353,6.464,7.353s6.616-2.168,6.616-7.392v-11.493h-2.979V300.362
		z"/>
	<path fill="#FFFFFF" d="M348.853,300.362h11.648c7.236,0,10.873,3.984,10.873,9.674c0,3.754-1.55,6.732-5.146,8.357
		c2.129,1.819,2.67,4.838,5.959,4.838h1.084v4.256c0,0-1.006,0.232-2.594,0.232c-6.772,0-6.385-6.23-9.674-8.089
		c-0.465,0.039-0.929,0.039-1.432,0.039h-2.979v3.483h3.715v4.412h-11.455v-4.412h2.941v-18.381h-2.941V300.362z M356.593,304.772
		v10.643h3.559c4.49,0,6.037-2.4,6.037-5.379c0-2.98-1.51-5.264-6.037-5.264H356.593z"/>
	<polygon fill="#FFFFFF" points="387.272,304.772 385.028,304.772 390.058,312.978 395.05,304.772 392.729,304.772 392.729,300.362 
		403.177,300.362 403.177,304.772 400.39,304.772 392.418,317.388 392.418,323.153 395.36,323.153 395.36,327.565 384.603,327.565 
		384.603,323.153 387.581,323.153 387.581,317.351 379.61,304.772 376.825,304.772 376.825,300.362 387.272,300.362 	"/>
</g>
<g>
	
		<line fill="none" stroke="#5BC4C0" stroke-width="3.5" stroke-miterlimit="10" x1="122.136" y1="316.326" x2="9.194" y2="316.326"/>
	
		<line fill="none" stroke="#5BC4C0" stroke-width="3.5" stroke-miterlimit="10" x1="518.57" y1="314.414" x2="405.629" y2="314.414"/>
</g>
<g>
	<rect fill="#FFFFFF" width="526.747" height="292.134"/>
	<rect x="7.222" y="7.222" fill="#00164B" width="512.302" height="277.689"/>
	<path fill="#5BBB61" d="M56.81,247.044c-0.841,0-1.649-0.463-2.051-1.266c-1.859-3.729-3.643-7.641-5.3-11.621
		c-0.484-1.168,0.067-2.509,1.234-2.993c1.164-0.479,2.506,0.064,2.993,1.233c1.616,3.886,3.355,7.701,5.171,11.335
		c0.563,1.133,0.103,2.506-1.027,3.071C57.501,246.966,57.153,247.044,56.81,247.044"/>
	<path fill="#5BBB61" d="M45.672,172.583c-1.197,0-2.202-0.931-2.282-2.14c-0.24-3.685-0.36-7.45-0.358-11.192
		c0-1.262,1.025-2.287,2.289-2.287h0.002c1.264,0,2.286,1.027,2.286,2.291c-0.002,3.641,0.116,7.305,0.349,10.889
		c0.082,1.262-0.875,2.352-2.135,2.434C45.773,172.58,45.722,172.583,45.672,172.583"/>
	<path fill="#C1D844" d="M45.576,78.949c-0.303,0-0.614-0.061-0.911-0.189c-1.159-0.505-1.691-1.853-1.186-3.012
		c4.461-10.254,9.675-20.46,15.941-31.204c0.638-1.091,2.043-1.464,3.13-0.824c1.092,0.637,1.462,2.038,0.825,3.13
		c-6.174,10.588-11.308,20.638-15.698,30.723C47.301,78.436,46.458,78.949,45.576,78.949"/>
	<path fill="#5BBB61" d="M49.181,94.022c-0.267,0-0.541-0.046-0.806-0.145c-1.182-0.446-1.781-1.765-1.337-2.949
		c0.687-1.828,1.39-3.654,2.135-5.484c5.351-13.194,12.17-26.584,20.848-40.931c0.652-1.083,2.061-1.43,3.143-0.774
		c1.081,0.654,1.428,2.061,0.774,3.142C65.385,61.02,58.673,74.198,53.413,87.167c-0.728,1.794-1.418,3.582-2.089,5.372
		C50.979,93.456,50.106,94.022,49.181,94.022"/>
	<path fill="#C1D844" d="M45.576,78.949c-0.303,0-0.614-0.061-0.911-0.189c-1.159-0.505-1.691-1.853-1.186-3.012
		c4.461-10.254,9.675-20.46,15.941-31.204c0.638-1.091,2.043-1.464,3.13-0.824c1.092,0.637,1.462,2.038,0.825,3.13
		c-6.174,10.588-11.308,20.638-15.698,30.723C47.301,78.436,46.458,78.949,45.576,78.949"/>
	<path fill="#C1D844" d="M46.392,56.367c-0.358,0-0.721-0.084-1.06-0.261c-1.119-0.587-1.552-1.969-0.966-3.09
		c1.49-2.843,3.008-5.66,4.567-8.438c0.62-1.103,2.015-1.496,3.115-0.877c1.102,0.618,1.495,2.012,0.877,3.115
		c-1.538,2.74-3.035,5.519-4.503,8.325C48.014,55.921,47.217,56.367,46.392,56.367"/>
	<path fill="#EF3D4A" d="M158,99.19c-0.421,0-0.848-0.116-1.228-0.358c-1.067-0.679-1.38-2.095-0.701-3.161
		c3.132-4.913,6.594-10.09,10.584-15.821c0.72-1.037,2.148-1.294,3.187-0.57c1.037,0.721,1.291,2.147,0.57,3.186
		c-3.954,5.679-7.383,10.803-10.479,15.666C159.496,98.816,158.756,99.19,158,99.19"/>
	<path fill="#5BBB61" d="M67.251,247.447c-0.812,0-1.599-0.433-2.015-1.196c-5.62-10.365-10.338-21.73-14.019-33.776
		c-0.341-1.117-0.667-2.232-0.989-3.35c-0.349-1.216,0.354-2.484,1.567-2.834c1.216-0.35,2.485,0.352,2.834,1.566
		c0.313,1.093,0.631,2.185,0.965,3.28c3.593,11.753,8.191,22.834,13.668,32.93c0.601,1.113,0.189,2.501-0.921,3.104
		C67.993,247.359,67.619,247.447,67.251,247.447"/>
	<path fill="#5BBB61" d="M56.81,247.044c-0.841,0-1.649-0.463-2.051-1.266c-1.859-3.729-3.643-7.641-5.3-11.621
		c-0.484-1.168,0.067-2.509,1.234-2.993c1.164-0.479,2.506,0.064,2.993,1.233c1.616,3.886,3.355,7.701,5.171,11.335
		c0.563,1.133,0.103,2.506-1.027,3.071C57.501,246.966,57.153,247.044,56.81,247.044"/>
	<path fill="#8C3B96" d="M106.241,224.132c-0.803,0-1.584-0.425-2.002-1.178c-4.285-7.715-7.869-16.244-10.654-25.353
		C75.056,136.958,102.97,90.516,135.779,44.37c0.734-1.029,2.16-1.271,3.193-0.539c1.028,0.732,1.27,2.163,0.538,3.193
		C107.389,92.2,80.041,137.61,97.964,196.264c2.69,8.801,6.148,17.034,10.275,24.469c0.614,1.104,0.217,2.499-0.89,3.111
		C106.998,224.039,106.618,224.132,106.241,224.132"/>
	<path fill="#3FA7DE" d="M102.306,235.45c-0.757,0-1.5-0.377-1.935-1.063c-6.403-10.098-11.394-21.157-15.26-33.812
		c-9.972-32.636-8.399-63.166,4.947-96.08c9.122-22.493,23.255-43.939,34.546-60.11c0.721-1.037,2.147-1.295,3.186-0.565
		c1.037,0.723,1.29,2.149,0.566,3.186c-11.154,15.973-25.106,37.139-34.058,59.21c-12.929,31.887-14.456,61.446-4.808,93.021
		c3.744,12.257,8.567,22.95,14.747,32.697c0.677,1.068,0.36,2.481-0.707,3.159C103.148,235.336,102.725,235.45,102.306,235.45"/>
	<path fill="#C12459" d="M112.257,191.696c-0.993,0-1.906-0.648-2.196-1.647c-7.393-25.312-5.995-48.171,4.531-74.123
		c9.551-23.557,24.786-45.428,43.71-71.571c0.74-1.024,2.171-1.256,3.195-0.511c1.024,0.74,1.253,2.171,0.511,3.195
		c-18.739,25.888-33.816,47.528-43.176,70.608c-10.111,24.931-11.461,46.865-4.379,71.119c0.355,1.214-0.341,2.484-1.554,2.837
		C112.684,191.667,112.467,191.696,112.257,191.696"/>
	<path fill="#8C3B96" d="M109.003,209.259c-0.888,0-1.733-0.517-2.105-1.384c-1.818-4.234-3.446-8.691-4.838-13.249
		c-17.441-57.077,8.819-100.036,44.961-150.267c0.737-1.022,2.165-1.262,3.195-0.519c1.025,0.738,1.258,2.168,0.52,3.195
		C115.345,96.22,89.61,138.22,106.438,193.288c1.342,4.399,2.911,8.7,4.665,12.778c0.499,1.162-0.038,2.509-1.199,3.008
		C109.611,209.2,109.304,209.259,109.003,209.259"/>
	<path fill="#EF3D4A" d="M141.504,109.082c-0.374,0-0.755-0.093-1.106-0.286c-1.107-0.612-1.506-2.005-0.894-3.111
		c5.498-9.934,12.559-20.916,22.895-35.612c0.726-1.033,2.156-1.283,3.189-0.555c1.034,0.727,1.283,2.154,0.555,3.188
		c-10.237,14.556-17.218,25.411-22.634,35.196C143.09,108.657,142.31,109.082,141.504,109.082"/>
	<path fill="#EF3D4A" d="M125.931,154.637c-0.065,0-0.133-0.002-0.198-0.008c-1.26-0.108-2.194-1.216-2.084-2.476
		c0.967-11.247,4.297-22.824,10.18-35.389c0.534-1.144,1.899-1.641,3.042-1.102c1.146,0.534,1.638,1.897,1.102,3.041
		c-5.65,12.071-8.843,23.141-9.764,33.841C128.105,153.736,127.106,154.637,125.931,154.637"/>
	<path fill="#C12459" d="M116.865,166.817c-1.203,0-2.213-0.938-2.282-2.156c-2.236-38.33,18.831-70.389,53.793-118.634l1.052-1.451
		c0.745-1.023,2.177-1.252,3.197-0.507c1.025,0.742,1.252,2.172,0.509,3.195l-1.051,1.451
		c-34.367,47.42-55.079,78.87-52.932,115.681c0.074,1.262-0.889,2.343-2.151,2.417C116.955,166.817,116.909,166.817,116.865,166.817
		"/>
	<path fill="#5BC4C0" d="M77.902,247.857c-0.782,0-1.544-0.399-1.971-1.12c-6.657-11.229-12.122-23.757-16.24-37.236
		C38.535,140.262,63.929,87.215,91.559,44.454c0.688-1.058,2.104-1.365,3.166-0.679c1.06,0.685,1.365,2.103,0.679,3.165
		c-27.06,41.876-51.943,93.779-31.334,161.223c4.011,13.134,9.327,25.325,15.799,36.239c0.643,1.088,0.286,2.49-0.802,3.136
		C78.701,247.755,78.3,247.857,77.902,247.857"/>
	<path fill="#5BBB61" d="M45.513,153.482c-0.038,0-0.076,0-0.114-0.002c-1.262-0.061-2.235-1.134-2.174-2.398
		c0.984-20.34,5.735-41.142,14.124-61.826C63.109,75.045,70.759,60.4,80.731,44.481c0.669-1.068,2.082-1.399,3.155-0.723
		c1.07,0.671,1.394,2.082,0.723,3.155C74.78,62.602,67.25,77.014,61.588,90.976c-8.308,20.491-12.82,40.223-13.792,60.329
		C47.737,152.529,46.727,153.482,45.513,153.482"/>
	<path fill="#3FA7DE" d="M100.398,248.729c-0.7,0-1.39-0.32-1.838-0.923c-9.463-12.732-16.838-27.622-21.922-44.255
		C57.1,139.605,82.799,89.272,113.483,44.406c0.715-1.044,2.139-1.313,3.18-0.598c1.044,0.713,1.311,2.137,0.598,3.181
		c-50.826,74.324-47.456,118.527-36.243,155.224c4.997,16.357,11.936,30.379,21.214,42.861c0.755,1.015,0.543,2.449-0.471,3.202
		C101.351,248.582,100.871,248.729,100.398,248.729"/>
	<path fill="#5BC4C0" d="M88.979,248.287c-0.742,0-1.47-0.36-1.912-1.026c-7.965-12.049-14.326-25.754-18.903-40.735
		c-11.253-36.835-9.442-72.701,5.54-109.649c6.554-16.164,15.696-32.829,28.766-52.447c0.7-1.052,2.122-1.338,3.174-0.638
		c1.052,0.703,1.338,2.123,0.637,3.174C93.386,66.32,84.38,82.727,77.945,98.597c-14.57,35.934-16.337,70.801-5.402,106.589
		c4.449,14.563,10.62,27.867,18.344,39.551c0.696,1.053,0.406,2.473-0.648,3.171C89.85,248.165,89.412,248.287,88.979,248.287"/>
	<path fill="#FFFFFF" d="M224.546,52.149c-0.307-0.665,0.101-1.328,0.868-1.328h3.63c0.408,0,0.766,0.307,0.868,0.561l11.245,25.304
		h0.307l11.246-25.304c0.101-0.254,0.408-0.561,0.868-0.561h3.629c0.767,0,1.175,0.663,0.868,1.328l-15.691,34.4
		c-0.153,0.307-0.46,0.564-0.868,0.564h-0.512c-0.358,0-0.715-0.257-0.868-0.564L224.546,52.149z"/>
	<path fill="#FFFFFF" d="M265.133,51.791c0-0.509,0.41-0.969,0.972-0.969h20.446c0.562,0,0.97,0.46,0.97,0.969v2.863
		c0,0.512-0.408,0.972-0.97,0.972h-16.154v10.428h13.649c0.51,0,0.972,0.46,0.972,0.971v2.861c0,0.564-0.462,0.972-0.972,0.972
		h-13.649v10.991h16.154c0.562,0,0.97,0.46,0.97,0.97v2.811c0,0.512-0.408,0.972-0.97,0.972h-20.446
		c-0.562,0-0.972-0.46-0.972-0.972V51.791z"/>
	<path fill="#FFFFFF" d="M297.132,51.791c0-0.509,0.41-0.969,0.972-0.969h13.903c6.133,0,11.142,4.856,11.142,10.937
		c0,4.703-3.118,8.587-7.563,10.378l7.003,12.984c0.355,0.662,0,1.481-0.87,1.481h-3.986c-0.408,0-0.715-0.255-0.818-0.46
		l-6.798-13.546h-7.72V85.63c0,0.512-0.46,0.972-0.969,0.972h-3.323c-0.562,0-0.972-0.46-0.972-0.972V51.791z M311.597,68.2
		c3.323,0,6.236-2.811,6.236-6.338c0-3.323-2.913-6.082-6.236-6.082H302.5V68.2H311.597z"/>
	<path fill="#FFFFFF" d="M336.902,51.077c0.104-0.408,0.512-0.767,0.92-0.767h0.817c0.308,0,0.768,0.255,0.868,0.562l10.686,26.121
		h0.205l10.63-26.121c0.104-0.307,0.512-0.562,0.87-0.562h0.818c0.408,0,0.816,0.359,0.919,0.767l6.286,34.351
		c0.153,0.714-0.203,1.174-0.92,1.174h-3.323c-0.46,0-0.868-0.358-0.969-0.714l-3.784-22.851h-0.152l-9.201,23.513
		c-0.102,0.307-0.408,0.564-0.868,0.564h-0.919c-0.411,0-0.77-0.257-0.871-0.564l-9.25-23.513h-0.205l-3.682,22.851
		c-0.05,0.356-0.51,0.714-0.92,0.714h-3.321c-0.717,0-1.073-0.46-0.971-1.174L336.902,51.077z"/>
	<path fill="#FFFFFF" d="M395.074,50.31c10.222,0,18.401,8.229,18.401,18.454c0,10.222-8.18,18.35-18.401,18.35
		c-10.223,0-18.351-8.128-18.351-18.35C376.724,58.539,384.852,50.31,395.074,50.31 M395.074,82.002
		c7.309,0,13.291-5.93,13.291-13.239c0-7.26-5.982-13.343-13.291-13.343c-7.257,0-13.239,6.083-13.239,13.343
		C381.835,76.073,387.817,82.002,395.074,82.002"/>
	<path fill="#FFFFFF" d="M422.679,51.229c0-0.512,0.46-0.92,0.973-0.92h1.277l22.182,25.659h0.053V51.791
		c0-0.509,0.408-0.969,0.972-0.969h3.271c0.51,0,0.972,0.46,0.972,0.969v34.403c0,0.509-0.462,0.92-0.972,0.92h-1.33l-22.183-26.376
		h-0.052V85.63c0,0.512-0.408,0.972-0.972,0.972h-3.219c-0.513,0-0.973-0.46-0.973-0.972V51.229z"/>
	<path fill="#FFFFFF" d="M469.096,55.626h-8.333c-0.561,0-0.972-0.46-0.972-0.972v-2.863c0-0.51,0.411-0.969,0.972-0.969h21.98
		c0.561,0,0.971,0.459,0.971,0.969v2.863c0,0.512-0.41,0.972-0.971,0.972h-8.331V85.63c0,0.512-0.46,0.972-0.973,0.972h-3.375
		c-0.509,0-0.969-0.46-0.969-0.972V55.626z"/>
	<path fill="#FFFFFF" d="M234.638,240.649l9.913-21.945c0.099-0.195,0.262-0.358,0.554-0.358h0.326c0.295,0,0.458,0.163,0.554,0.358
		l9.849,21.945c0.195,0.426-0.064,0.849-0.554,0.849h-1.306c-0.291,0-0.487-0.196-0.553-0.359l-2.414-5.38h-11.574l-2.381,5.38
		c-0.065,0.163-0.26,0.359-0.554,0.359h-1.306C234.705,241.498,234.443,241.075,234.638,240.649 M250.127,233.736
		c-1.597-3.554-3.163-7.142-4.76-10.694h-0.262l-4.76,10.694H250.127z"/>
	<path fill="#FFFFFF" d="M261.017,218.932c0-0.326,0.294-0.586,0.621-0.586h0.813l14.708,18.325h0.064v-17.38
		c0-0.327,0.262-0.619,0.621-0.619h1.139c0.327,0,0.621,0.292,0.621,0.619v21.944c0,0.326-0.294,0.589-0.621,0.589h-0.586
		l-14.967-18.687h-0.032v17.739c0,0.327-0.262,0.621-0.62,0.621h-1.14c-0.327,0-0.621-0.294-0.621-0.621V218.932z"/>
	<path fill="#FFFFFF" d="M287.885,218.932c0-0.326,0.294-0.586,0.621-0.586h0.813l14.708,18.325h0.064v-17.38
		c0-0.327,0.262-0.619,0.621-0.619h1.139c0.327,0,0.621,0.292,0.621,0.619v21.944c0,0.326-0.294,0.589-0.621,0.589h-0.586
		l-14.967-18.687h-0.032v17.739c0,0.327-0.262,0.621-0.62,0.621h-1.14c-0.327,0-0.621-0.294-0.621-0.621V218.932z"/>
	<path fill="#FFFFFF" d="M314.753,219.29c0-0.326,0.294-0.618,0.621-0.618h1.303c0.326,0,0.62,0.292,0.62,0.618v21.587
		c0,0.326-0.294,0.62-0.62,0.62h-1.303c-0.327,0-0.621-0.294-0.621-0.62V219.29z"/>
	<path fill="#FFFFFF" d="M322.479,219.521c-0.194-0.425,0.067-0.849,0.555-0.849h1.305c0.295,0,0.49,0.195,0.554,0.358l8.121,18.261
		h0.131l8.117-18.261c0.067-0.163,0.295-0.358,0.554-0.358h1.307c0.488,0,0.749,0.424,0.554,0.849l-9.913,21.944
		c-0.097,0.196-0.294,0.359-0.554,0.359h-0.326c-0.229,0-0.458-0.163-0.554-0.359L322.479,219.521z"/>
	<path fill="#FFFFFF" d="M348.858,219.29c0-0.326,0.262-0.618,0.621-0.618h12.848c0.358,0,0.618,0.292,0.618,0.618v0.947
		c0,0.326-0.26,0.618-0.618,0.618H351.37v7.957h9.357c0.325,0,0.62,0.295,0.62,0.621v0.944c0,0.358-0.295,0.62-0.62,0.62h-9.357
		v8.314h10.957c0.358,0,0.618,0.294,0.618,0.62v0.944c0,0.326-0.26,0.62-0.618,0.62h-12.848c-0.359,0-0.621-0.294-0.621-0.62V219.29
		z"/>
	<path fill="#FFFFFF" d="M369.791,219.29c0-0.326,0.264-0.618,0.621-0.618h8.444c3.914,0,7.109,3.064,7.109,6.946
		c0,2.999-1.988,5.509-4.827,6.651l4.469,8.283c0.227,0.423,0,0.945-0.554,0.945h-1.664c-0.292,0-0.455-0.164-0.522-0.295
		l-4.337-8.639h-6.226v8.313c0,0.326-0.295,0.621-0.621,0.621h-1.271c-0.357,0-0.621-0.295-0.621-0.621V219.29z M378.693,230.41
		c2.512,0,4.696-2.087,4.696-4.76c0-2.479-2.185-4.6-4.696-4.6h-6.325v9.359H378.693z"/>
	<path fill="#FFFFFF" d="M391.51,238.073c0.162-0.195,0.325-0.423,0.486-0.618c0.326-0.425,0.686-0.686,1.143-0.294
		c0.228,0.194,2.608,2.477,5.512,2.477c2.641,0,4.369-1.661,4.369-3.585c0-2.25-1.956-3.588-5.707-5.152
		c-3.588-1.566-5.739-3.032-5.739-6.751c0-2.216,1.761-5.804,6.946-5.804c3.194,0,5.576,1.661,5.576,1.661
		c0.194,0.099,0.586,0.49,0.194,1.111c-0.131,0.194-0.259,0.422-0.39,0.618c-0.295,0.457-0.621,0.588-1.144,0.294
		c-0.227-0.131-2.281-1.501-4.27-1.501c-3.457,0-4.5,2.218-4.5,3.588c0,2.186,1.664,3.457,4.401,4.597
		c4.403,1.795,7.239,3.457,7.239,7.24c0,3.392-3.229,5.87-7.045,5.87c-3.847,0-6.456-2.25-6.879-2.642
		C391.442,238.953,391.116,238.694,391.51,238.073"/>
	<path fill="#FFFFFF" d="M408.854,240.649l9.913-21.945c0.1-0.195,0.263-0.358,0.554-0.358h0.326c0.295,0,0.458,0.163,0.555,0.358
		l9.849,21.945c0.195,0.426-0.064,0.849-0.554,0.849h-1.307c-0.291,0-0.488-0.196-0.553-0.359l-2.414-5.38h-11.574l-2.381,5.38
		c-0.064,0.163-0.263,0.359-0.554,0.359h-1.306C408.92,241.498,408.66,241.075,408.854,240.649 M424.344,233.736
		c-1.597-3.554-3.163-7.142-4.76-10.694h-0.263l-4.76,10.694H424.344z"/>
	<path fill="#FFFFFF" d="M435.233,219.29c0-0.326,0.262-0.618,0.621-0.618h8.443c3.914,0,7.109,3.064,7.109,6.946
		c0,2.999-1.988,5.509-4.827,6.651l4.469,8.283c0.228,0.423,0,0.945-0.554,0.945h-1.664c-0.292,0-0.455-0.164-0.521-0.295
		l-4.338-8.639h-6.226v8.313c0,0.326-0.295,0.621-0.621,0.621h-1.271c-0.359,0-0.621-0.295-0.621-0.621V219.29z M444.135,230.41
		c2.513,0,4.696-2.087,4.696-4.76c0-2.479-2.184-4.6-4.696-4.6h-6.324v9.359H444.135z"/>
	<path fill="#FFFFFF" d="M463.017,230.509l-7.861-10.892c-0.259-0.423,0-0.945,0.521-0.945h1.533c0.229,0,0.427,0.163,0.522,0.292
		l6.587,9.099l6.587-9.099c0.097-0.129,0.295-0.292,0.522-0.292h1.532c0.522,0,0.781,0.522,0.522,0.945l-7.957,10.859v10.4
		c0,0.326-0.294,0.621-0.621,0.621h-1.271c-0.357,0-0.617-0.295-0.617-0.621V230.509z"/>
	<path fill="#FFFFFF" d="M348.992,136.229h-10.949v-16.498h31.764c1.696,0,2.931-1.387,2.931-2.93v-13.57
		c0-1.541-1.234-2.928-2.931-2.928h-49.65c-1.694,0-2.929,1.387-2.929,2.928v47.802c0,2.468,1.696,5.396,4.78,5.396h23.745
		c10.021,0,15.882,6.632,15.882,14.957c0,8.482-6.323,14.649-14.649,14.649c-7.399,0-18.349-7.401-18.349-7.401
		c-1.234-0.771-2.774-0.463-3.699,0.462l-9.715,9.563c-1.85,1.85-1.697,2.928,0.31,5.242c3.854,4.627,14.491,12.799,30.529,12.799
		c21.586,0,38.086-16.038,38.086-35.313C384.147,151.187,370.269,136.229,348.992,136.229 M470.394,158.45h-21.183
		c-0.957,0-1.739,0.756-1.811,1.711c-1.167,15.628-6.185,24.177-14.37,24.177c-9.406,0-14.648-11.256-14.648-31.608
		c0-20.2,5.242-31.611,14.648-31.611c3.49,0,6.396,1.597,8.684,4.61c0.348,0.459,0.878,0.753,1.454,0.753h23.044
		c1.257,0,2.164-1.255,1.722-2.432c-6.074-16.173-18.048-25.29-34.903-25.29c-25.133,0-39.475,20.2-39.475,53.97
		c0,33.769,14.342,53.969,39.475,53.969c23.161,0,37.146-17.164,39.198-46.284C472.303,159.361,471.451,158.45,470.394,158.45
		 M303.962,129.909c0-17.116-12.952-31.149-35.001-31.149c-18.349,0-30.839,15.111-30.839,15.111
		c-1.078,1.234-0.925,3.083,0.154,4.011l9.406,9.559c1.233,1.234,3.083,1.234,4.317,0c2.93-3.239,8.634-7.71,14.957-7.71
		c8.635,0,13.569,5.242,13.569,11.103c0,4.317-2.005,8.634-4.008,11.718c-9.1,13.877-31.92,44.872-40.863,56.589v3.085
		c0,1.543,1.233,2.93,2.93,2.93h61.678c1.54,0,2.93-1.387,2.93-2.93v-13.878c0-1.543-1.39-2.93-2.93-2.93h-27.138
		c7.245-10.178,19.89-26.676,24.823-35.466C301.649,142.705,303.962,138.081,303.962,129.909"/>
	<path fill="#FFFFFF" d="M449.012,152.191h3.69c0.306,0,0.58-0.259,0.58-0.543v-14.256h2.75c0.337,0,0.588-0.255,0.588-0.542v-3.113
		c0-0.284-0.251-0.542-0.588-0.542h-10.352c-0.337,0-0.588,0.258-0.588,0.542v3.113c0,0.287,0.251,0.542,0.588,0.542h2.751v14.256
		C448.432,151.932,448.705,152.191,449.012,152.191"/>
	<path fill="#FFFFFF" d="M471.71,133.195h-3.658c-0.338,0-0.58,0.258-0.58,0.542v6.699h-3.575v-6.699
		c0-0.284-0.243-0.542-0.58-0.542h-3.659c-0.306,0-0.58,0.258-0.58,0.542v17.912c0,0.283,0.274,0.542,0.58,0.542h3.659
		c0.337,0,0.58-0.259,0.58-0.542v-7.016h3.575v7.016c0,0.283,0.242,0.542,0.58,0.542h3.658c0.307,0,0.588-0.259,0.588-0.542v-17.912
		C472.298,133.453,472.017,133.195,471.71,133.195"/>
	<path fill="#5BC4C0" d="M200.308,246.672V45.462c0-0.696-0.564-1.26-1.26-1.26h-0.081c-0.696,0-1.26,0.564-1.26,1.26v201.21
		c0,0.696,0.564,1.26,1.26,1.26h0.081C199.744,247.932,200.308,247.368,200.308,246.672"/>
</g>
</svg>
